/* XPM */
static const char * current_stop_xpm[] = {
"13 12 36 1",
" 	c None",
".	c #33475B",
"+	c #125398",
"@	c #024388",
"#	c #334E69",
"$	c #80C1FF",
"%	c #07488D",
"&	c #0D51A0",
"*	c #0B509E",
"=	c #274DA1",
"-	c #8DB3FF",
";	c #79B1FE",
">	c #0A418E",
",	c #1257A5",
"'	c #74B9FF",
")	c #8EB3FF",
"!	c #789EF2",
"~	c #649BE8",
"{	c #0E4592",
"]	c #144F9C",
"^	c #4983D1",
"/	c #4C80D6",
"(	c #4E82D8",
"_	c #3C8AD3",
":	c #025099",
"<	c #084390",
"[	c #13479D",
"}	c #3064BA",
"|	c #2473BC",
"1	c #004E97",
"2	c #2C435D",
"3	c #2261A1",
"4	c #064585",
"5	c #0E4D8D",
"6	c #044383",
"7	c #3B4459",
"             ",
"      .      ",
"     +@      ",
"    #$%      ",
" &*=-;>      ",
" ,')!~{      ",
" ]^/(_:      ",
" <<[}|1      ",
"    234      ",
"     56      ",
"      7      ",
"             "};
