/* XPM */
static const char * effects_xpm[] = {
"17 10 3 1",
" 	c None",
".	c #000000",
"+	c #939393",
"......   ..   .. ",
".+++++. .++. .++.",
".+++++. .++. .++.",
".++...   .++.++. ",
".+++++.   .+++.  ",
".+++++.   .+++.  ",
".++...   .++.++. ",
".++.    .++. .++.",
".++.    .++. .++.",
" ..      ..   .. "};
