/* XPM */
static const char * looper_xpm[] = {
"14 12 3 1",
" 	c #FFFFFF",
".	c #000000",
"+	c #FAFAFA",
"              ",
" .          . ",
" .          . ",
" .       .  . ",
" .        .+. ",
" ............ ",
" .        . . ",
" .       .  . ",
" .          . ",
" .          . ",
" .          . ",
"              "};
