/* XPM */
static const char *menu_xpm[] = {
"18 18 6 1",
" 	c None",
".	c #000000",
"+	c #BCBCBC",
"@	c #5B5B5B",
"#	c #AAAAAA",
"$	c #727272",
"                  ",
"  ..............  ",
"  .+++++++++++@.  ",
"  .+##########$.  ",
"  .+#........#$.  ",
"  .+##########$.  ",
"  .+#........#$.  ",
"  .+##########$.  ",
"  .+#........#$.  ",
"  .+##########$.  ",
"  .+#........#$.  ",
"  .+##########$.  ",
"  .+#........#$.  ",
"  .+##########$.  ",
"  .+##########$.  ",
"  .@$$$$$$$$$$$.  ",
"  ..............  ",
"                  "};
