/* XPM */
static const char * note_xpm[] = {
"15 17 6 1",
" 	c None",
".	c #000000",
"+	c #FFFFFF",
"@	c #FFFF00",
"#	c #FFA858",
"$	c #C05800",
"              .",
"             ..",
"           ..+.",
"         ..++..",
"      ...++....",
"      .++.... .",
"      .....   .",
"      ...     .",
"      .       .",
"      .       .",
"      .   .....",
"  ..... ..@@##.",
"..@@##. .###$$.",
".###$$. .##$$$.",
".###$$. ..#$$$.",
"..#$$$.   .... ",
"  ....         "};
