/* XPM */
static const char * pause_xpm[] = {
"14 12 3 1",
" 	c None",
".	c #000000",
"+	c #939393",
"              ",
"              ",
"  ....  ....  ",
"  .++.  .++.  ",
"  .++.  .++.  ",
"  .++.  .++.  ",
"  .++.  .++.  ",
"  .++.  .++.  ",
"  .++.  .++.  ",
"  ....  ....  ",
"              ",
"              "};
