/* XPM */
static const char * r_play_xpm[] = {
"14 12 3 1",
" 	c None",
".	c #000000",
"+	c #939393",
"              ",
"              ",
"        ..    ",
"      ..+.    ",
"    ..+++.    ",
"  ..+++++.    ",
"  ..+++++.    ",
"    ..+++.    ",
"      ..+.    ",
"        ..    ",
"              ",
"              "};
