/* XPM */
static const char * volume_icon_xpm[] = {
"16 11 3 1",
" 	c None",
".	c #848284",
"+	c #EFEBEF",
"                ",
"      ..    .   ",
" ... .+.     .  ",
" .+..++.  .  .  ",
" .+.+++.   .  . ",
" .+.+++. . .  . ",
" .+.+++.   .  . ",
" .+..++.  .  .  ",
" ... .+.     .  ",
"      ..    .   ",
"                "};
