/* XPM */
static char * new_playlist_xpm[] = {
"15 12 2 1",
" 	c None",
".	c #000000",
"               ",
"               ",
"               ",
"    .... ..    ",
"    .  . ..    ",
"    .  . ..    ",
"    .... ..    ",
"    .    ..    ",
"    .    ..    ",
"    .    ....  ",
"               ",
"               "};
