/* XPM */
static char * new_prev_xpm[] = {
"13 11 2 1",
" 	c None",
".	c #000000",
"     .      .",
"    ..     ..",
"   ...    ...",
"  ....   ....",
" .....  .....",
"...... ......",
" .....  .....",
"  ....   ....",
"   ...    ...",
"    ..     ..",
"     .      ."};
