/* XPM */
static char * new_stop_xpm[] = {
"13 11 2 1",
" 	c None",
".	c #000000",
"             ",
"  .........  ",
"  .........  ",
"  .........  ",
"  .........  ",
"  .........  ",
"  .........  ",
"  .........  ",
"  .........  ",
"  .........  ",
"             "};
