/* XPM */
static char * balance_icon_xpm[] = {
"26 9 3 1",
" 	c None",
".	c #848284",
"+	c #EFEBEF",
"   .                  .   ",
"  .      .........     .  ",
"  .  .   .+++++++.  .  .  ",
" .  .     .+++++.    .  . ",
" .  . .    .+++.   . .  . ",
" .  .     .......    .  . ",
"  .  .    .+++++.   .  .  ",
"  .       .......      .  ",
"   .                  .   "};
