/* XPM */
static const char *cd_xpm[] = {
"19 19 150 2",
"  	c None",
". 	c #000606",
"+ 	c #334C4C",
"@ 	c #4D6767",
"# 	c #152C2C",
"$ 	c #1E4444",
"% 	c #A9E8E8",
"& 	c #BFFEFE",
"* 	c #BFFFFF",
"= 	c #C0FEFE",
"- 	c #97D5D5",
"; 	c #133333",
"> 	c #214C4C",
", 	c #ADECEC",
"' 	c #BCFDFD",
") 	c #7BE8E8",
"! 	c #93D6D6",
"~ 	c #0A2727",
"{ 	c #001414",
"] 	c #002F22",
"^ 	c #1E4945",
"/ 	c #9DE2E2",
"( 	c #95F1F1",
"_ 	c #65E1E1",
": 	c #69E2E2",
"< 	c #53DBDB",
"[ 	c #45BEBE",
"} 	c #002E2E",
"| 	c #001612",
"1 	c #013D15",
"2 	c #1F4F25",
"3 	c #163A19",
"4 	c #1C4843",
"5 	c #60CFCF",
"6 	c #59DDDD",
"7 	c #6DE3E3",
"8 	c #34D1D1",
"9 	c #45D6D6",
"0 	c #00A3A3",
"a 	c #001615",
"b 	c #023E16",
"c 	c #426240",
"d 	c #7F7F7F",
"e 	c #737973",
"f 	c #1F3E21",
"g 	c #204B49",
"h 	c #51CDCD",
"i 	c #28CDCD",
"j 	c #1ECACA",
"k 	c #00BFBF",
"l 	c #00A7A7",
"m 	c #002323",
"n 	c #002626",
"o 	c #005337",
"p 	c #537153",
"q 	c #D3BDBD",
"r 	c #9F8F8F",
"s 	c #505350",
"t 	c #002000",
"u 	c #00403D",
"v 	c #00AFAF",
"w 	c #009B9B",
"x 	c #002929",
"y 	c #005050",
"z 	c #003F24",
"A 	c #9DA79D",
"B 	c #C0BFBF",
"C 	c #D1BCBC",
"D 	c #767272",
"E 	c #052B2B",
"F 	c #00201C",
"G 	c #153417",
"H 	c #003F3A",
"I 	c #00B5B5",
"J 	c #004D4D",
"K 	c #002828",
"L 	c #006B6B",
"M 	c #006565",
"N 	c #113A20",
"O 	c #A2ABA2",
"P 	c #BFBFBF",
"Q 	c #C2BFBF",
"R 	c #C6B2AF",
"S 	c #354242",
"T 	c #313B3B",
"U 	c #6F756F",
"V 	c #313933",
"W 	c #023F3F",
"X 	c #00B2B2",
"Y 	c #00B3B3",
"Z 	c #005555",
"` 	c #003131",
" .	c #001818",
"..	c #004242",
"+.	c #009393",
"@.	c #0A6052",
"#.	c #6C846C",
"$.	c #C1BFBF",
"%.	c #DFCEBF",
"&.	c #C3D6BF",
"*.	c #BFBDBD",
"=.	c #9F9090",
"-.	c #7B7B7B",
";.	c #293A29",
">.	c #00403E",
",.	c #004B4B",
"'.	c #001515",
").	c #003C3C",
"!.	c #22A2A0",
"~.	c #518262",
"{.	c #C1B4AB",
"].	c #BFC0BF",
"^.	c #D2BCBC",
"/.	c #A09191",
"(.	c #808080",
"_.	c #647264",
":.	c #04250D",
"<.	c #002F2F",
"[.	c #001616",
"}.	c #617575",
"|.	c #D4D8D4",
"1.	c #798079",
"2.	c #939B93",
"3.	c #B8B9B8",
"4.	c #B8B0AE",
"5.	c #747B74",
"6.	c #1E2C22",
"7.	c #00302F",
"8.	c #868686",
"9.	c #8DBDBB",
"0.	c #0B6042",
"a.	c #475F5B",
"b.	c #617961",
"c.	c #667766",
"d.	c #2E562E",
"e.	c #002804",
"f.	c #053F3F",
"g.	c #019191",
"h.	c #016565",
"i.	c #003F3C",
"j.	c #013F3D",
"k.	c #002623",
"l.	c #004343",
"m.	c #008D8D",
"n.	c #006767",
"o.	c #004545",
"p.	c #009090",
"q.	c #006060",
"r.	c #000404",
"s.	c #000303",
"                                      ",
"        . + @ @ @ @ @ #               ",
"          $ % & * = = - ;             ",
"            > , & & ' ) ! ~           ",
"          { ] ^ / ( _ : < [ }         ",
"        | 1 2 3 4 5 6 7 8 9 0 }       ",
"      a b c d e f g h i j k k l m     ",
"    n o p q r d s t u v k k k k w {   ",
"  x y z A B C D E F G H v k k I J K   ",
"  L M N O P Q R S T U V W X Y Z `  .  ",
"  ..+.@.#.$.%.&.*.=.d -.;.>.,.` '.    ",
"    ).!.~.{.&.].B ^./.(._.:.<.[.      ",
"      }.|.1.2.3.P P 4.5.6.7. .        ",
"        8.9.0.a.b.c.d.e.` '.          ",
"          f.g.h.i.j.k.7.'.            ",
"            l.m.n.` <. .              ",
"              o.p.q.[.                ",
"                r.s.                  ",
"                                      "};
