/* XPM */
static const char * eject_xpm[] = {
"15 16 8 1",
" 	c None",
".	c #000000",
"+	c #939393",
"@	c #AAAAAA",
"#	c #777777",
"$	c #FFFFFF",
"%	c #BCBCBC",
"&	c #666666",
"       .       ",
"      .+.      ",
"     .+@#.     ",
"    .++@##.    ",
"   .+++@###.   ",
"  .++@$@+###.  ",
" .+@$%@@@@+##. ",
".@$%@@@@@@@@+#.",
".@$%@@@@@@@@+#.",
"...............",
"               ",
"...............",
".$@@@@@@@@@@@+.",
".$@@@@@@@@@@@+.",
".+&&&&&&&&&&&..",
"..............."};
