/* XPM */
static char * new_play_xpm[] = {
"13 11 2 1",
" 	c None",
".	c #000000",
"  .          ",
"  ...        ",
"  .....      ",
"  ......     ",
"  ........   ",
"  .......... ",
"  ........   ",
"  ......     ",
"  .....      ",
"  ...        ",
"  .          "};
