/* XPM */
static const char * next_xpm[] = {
"15 15 7 1",
" 	c None",
".	c #000000",
"+	c #AAAAAA",
"@	c #FFFFFF",
"#	c #939393",
"$	c #5B5B5B",
"%	c #BCBCBC",
" ...      .... ",
" .++.     .@#. ",
" .@@#.    .+$. ",
" .%%+#.   .+$. ",
" .++@##.  .+$. ",
" .++%+##. .+$. ",
" .+++@###..+$. ",
" .+++++++#.+$. ",
" .+++#$$$..+$. ",
" .+++$$$. .+$. ",
" .++#$$.  .+$. ",
" .++$$.   .+$. ",
" .##$.    .+$. ",
" .$$.     .#.. ",
" ...      .... "};
