/* XPM */
static const char * play_xpm[] = {
"18 18 10 1",
" 	c None",
".	c #A0A0A0",
"+	c #000000",
"@	c #AAAAAA",
"#	c #FFFFFF",
"$	c #939393",
"%	c #AFAFAF",
"&	c #BCBCBC",
"*	c #727272",
"=	c #5B5B5B",
"                  ",
" .                ",
" ++.              ",
" +@++             ",
" +#$@++           ",
" +%$$$@++         ",
" +@#$$$$@++       ",
" +@%$$$$$$@++     ",
" +@@#$$$$$$$@++   ",
" +@@@&&&&&&&&&@++ ",
" +@@@*******=++   ",
" +@@******=++     ",
" +@@****=++       ",
" +@***=++         ",
" +@*=++           ",
" +=++             ",
" ++               ",
"                  "};
