/* XPM */
static const char * playlist_xpm[] = {
"18 18 12 1",
" 	c None",
".	c #000000",
"+	c #CBCBFF",
"@	c #980098",
"#	c #CB98FF",
"$	c #FF9898",
"%	c #FF3300",
"&	c #FF9800",
"*	c #FFCB66",
"=	c #E68600",
"-	c #FFCB00",
";	c #A0A0A0",
"                  ",
"        .         ",
"       .+@.       ",
"      .+#+#@.     ",
"     .+++#+##@.   ",
"    .+++#+#####@. ",
"   .+++++#+#####. ",
"  .@++++#+#####.  ",
"  ...@+++#+###.   ",
"  ..$%.@#+###.&.  ",
"  .*.$$%.@+#.&%.. ",
"   =*.$$&%..%..   ",
"   .**.$$&%.=--.  ",
"    =**.&.=---=.. ",
"    .**-.--=..    ",
"     =**=..;      ",
"     ...          ",
"                  "};
