/* XPM */
static const char * prev_xpm[] = {
"15 15 8 1",
" 	c None",
".	c #000000",
"+	c #939393",
"@	c #FFFFFF",
"#	c #AFAFAF",
"$	c #5B5B5B",
"%	c #AAAAAA",
"&	c #BCBCBC",
" ....      ... ",
" .+@.     .##. ",
" .$%.    .+@@. ",
" .$%.   .+#&&. ",
" .$%.  .++@%%. ",
" .$%. .++#&%%. ",
" .$%..+++@%%%. ",
" .$%.+%%%%%%%. ",
" .$%..$$$+%%%. ",
" .$%. .$$$%%%. ",
" .$%.  .$$+%%. ",
" .$%.   .$$%%. ",
" .$%.    .$++. ",
" ..+.     .$$. ",
" ....      ... "};
