/* XPM */
static const char * stop_xpm[] = {
"15 15 6 1",
" 	c None",
".	c #000000",
"+	c #FFFFFF",
"@	c #BCBCBC",
"#	c #727272",
"$	c #AAAAAA",
"               ",
" ............. ",
" .+@@@@@@@@@#. ",
" .@+@@@@@@@##. ",
" .@@$$$$$$$##. ",
" .@@$$$$$$$##. ",
" .@@$$$$$$$##. ",
" .@@$$$$$$$##. ",
" .@@$$$$$$$##. ",
" .@@$$$$$$$##. ",
" .@@$$$$$$$##. ",
" .@########.#. ",
" .##########.. ",
" ............. ",
"               "};
